{
  "accessors": [
    {
      "bufferView": 2,
      "componentType": 5126,
      "count": 5650,
      "max": [
        24.06100082397461,
        1.1284600496292114,
        3.2479898929595947
      ],
      "min": [
        -13.941410064697266,
        -2.0880699157714844,
        -4.755660057067871
      ],
      "type": "VEC3"
    },
    {
      "bufferView": 2,
      "byteOffset": 67800,
      "componentType": 5126,
      "count": 5650,
      "max": [
        1.0,
        1.0,
        1.0
      ],
      "min": [
        -1.0,
        -1.0,
        -1.0
      ],
      "type": "VEC3"
    },
    {
      "bufferView": 3,
      "componentType": 5126,
      "count": 5650,
      "max": [
        1.0,
        1.0,
        1.0,
        1.0
      ],
      "min": [
        -1.0,
        -1.0,
        -1.0,
        -1.0
      ],
      "type": "VEC4"
    },
    {
      "bufferView": 1,
      "componentType": 5126,
      "count": 5650,
      "max": [
        0.9990900158882141,
        0.9989799857139587
      ],
      "min": [
        0.000910000002477318,
        0.000910000002477318
      ],
      "type": "VEC2"
    },
    {
      "bufferView": 1,
      "byteOffset": 45200,
      "componentType": 5126,
      "count": 5650,
      "max": [
        0.9990900158882141,
        0.9989799857139587
      ],
      "min": [
        0.000910000002477318,
        0.000910000002477318
      ],
      "type": "VEC2"
    },
    {
      "bufferView": 0,
      "componentType": 5125,
      "count": 19539,
      "type": "SCALAR"
    },
    {
      "bufferView": 2,
      "byteOffset": 135600,
      "componentType": 5126,
      "count": 1484,
      "max": [
        6.731900215148926,
        0.9214100241661072,
        -1.124690055847168
      ],
      "min": [
        -13.613789558410645,
        -0.9412599802017212,
        -7.389170169830322
      ],
      "type": "VEC3"
    },
    {
      "bufferView": 2,
      "byteOffset": 153408,
      "componentType": 5126,
      "count": 1484,
      "max": [
        1.0,
        1.0,
        1.0
      ],
      "min": [
        -1.0,
        -1.0,
        -1.0
      ],
      "type": "VEC3"
    },
    {
      "bufferView": 3,
      "byteOffset": 90400,
      "componentType": 5126,
      "count": 1484,
      "max": [
        1.0,
        1.0,
        0.8842266201972961,
        1.0
      ],
      "min": [
        -1.0,
        -1.0,
        -0.9003297090530396,
        1.0
      ],
      "type": "VEC4"
    },
    {
      "bufferView": 1,
      "byteOffset": 90400,
      "componentType": 5126,
      "count": 1484,
      "max": [
        0.9996500015258789,
        0.9981200098991394
      ],
      "min": [
        0.0003499999875202775,
        0.0003499999875202775
      ],
      "type": "VEC2"
    },
    {
      "bufferView": 1,
      "byteOffset": 102272,
      "componentType": 5126,
      "count": 1484,
      "max": [
        0.9996500015258789,
        0.9981200098991394
      ],
      "min": [
        0.0003499999875202775,
        0.0003499999875202775
      ],
      "type": "VEC2"
    },
    {
      "bufferView": 0,
      "byteOffset": 78156,
      "componentType": 5125,
      "count": 5988,
      "type": "SCALAR"
    },
    {
      "bufferView": 2,
      "byteOffset": 171216,
      "componentType": 5126,
      "count": 3470,
      "max": [
        11.96990966796875,
        1.6215499639511108,
        2.621109962463379
      ],
      "min": [
        -9.558349609375,
        -1.3287800550460815,
        -1.6126400232315063
      ],
      "type": "VEC3"
    },
    {
      "bufferView": 2,
      "byteOffset": 212856,
      "componentType": 5126,
      "count": 3470,
      "max": [
        1.0,
        1.0,
        1.0
      ],
      "min": [
        -1.0,
        -1.0,
        -1.0
      ],
      "type": "VEC3"
    },
    {
      "bufferView": 3,
      "byteOffset": 114144,
      "componentType": 5126,
      "count": 3470,
      "max": [
        1.0,
        1.0,
        1.0,
        1.0
      ],
      "min": [
        -1.0,
        -1.0,
        -1.0,
        1.0
      ],
      "type": "VEC4"
    },
    {
      "bufferView": 1,
      "byteOffset": 114144,
      "componentType": 5126,
      "count": 3470,
      "max": [
        0.9906299710273743,
        0.9988999962806702
      ],
      "min": [
        0.0010999999940395355,
        0.0010999999940395355
      ],
      "type": "VEC2"
    },
    {
      "bufferView": 1,
      "byteOffset": 141904,
      "componentType": 5126,
      "count": 3470,
      "max": [
        0.9906299710273743,
        0.9988999962806702
      ],
      "min": [
        0.0010999999940395355,
        0.0010999999940395355
      ],
      "type": "VEC2"
    },
    {
      "bufferView": 0,
      "byteOffset": 102108,
      "componentType": 5125,
      "count": 8550,
      "type": "SCALAR"
    },
    {
      "bufferView": 2,
      "byteOffset": 254496,
      "componentType": 5126,
      "count": 4748,
      "max": [
        12.12831974029541,
        1.02701997756958,
        1.0802199840545654
      ],
      "min": [
        -28.706750869750977,
        -1.02701997756958,
        -11.354610443115234
      ],
      "type": "VEC3"
    },
    {
      "bufferView": 2,
      "byteOffset": 311472,
      "componentType": 5126,
      "count": 4748,
      "max": [
        1.0,
        1.0,
        1.0
      ],
      "min": [
        -1.0,
        -1.0,
        -1.0
      ],
      "type": "VEC3"
    },
    {
      "bufferView": 3,
      "byteOffset": 169664,
      "componentType": 5126,
      "count": 4748,
      "max": [
        1.0,
        1.0,
        1.0,
        1.0
      ],
      "min": [
        -1.0,
        -1.0,
        -1.0,
        1.0
      ],
      "type": "VEC4"
    },
    {
      "bufferView": 1,
      "byteOffset": 169664,
      "componentType": 5126,
      "count": 4748,
      "max": [
        0.9942799806594849,
        0.9992700219154358
      ],
      "min": [
        0.0007300000288523734,
        0.0007300000288523734
      ],
      "type": "VEC2"
    },
    {
      "bufferView": 1,
      "byteOffset": 207648,
      "componentType": 5126,
      "count": 4748,
      "max": [
        0.9942799806594849,
        0.9992700219154358
      ],
      "min": [
        0.0007300000288523734,
        0.0007300000288523734
      ],
      "type": "VEC2"
    },
    {
      "bufferView": 0,
      "byteOffset": 136308,
      "componentType": 5125,
      "count": 18138,
      "type": "SCALAR"
    }
  ],
  "asset": {
    "extras": {
      "author": "Tuuttipingu (https://sketchfab.com/Tuuttipingu)",
      "license": "SKETCHFAB Standard (https://sketchfab.com/licenses)",
      "source": "https://sketchfab.com/3d-models/rk-62-m2-53120de9648d4828915927ed35abadf5",
      "title": "RK-62 M2"
    },
    "generator": "Sketchfab-15.66.0",
    "version": "2.0"
  },
  "bufferViews": [
    {
      "buffer": 0,
      "byteLength": 208860,
      "name": "floatBufferViews",
      "target": 34963
    },
    {
      "buffer": 0,
      "byteLength": 245632,
      "byteOffset": 208860,
      "byteStride": 8,
      "name": "floatBufferViews",
      "target": 34962
    },
    {
      "buffer": 0,
      "byteLength": 368448,
      "byteOffset": 454492,
      "byteStride": 12,
      "name": "floatBufferViews",
      "target": 34962
    },
    {
      "buffer": 0,
      "byteLength": 245632,
      "byteOffset": 822940,
      "byteStride": 16,
      "name": "floatBufferViews",
      "target": 34962
    }
  ],
  "buffers": [
    {
      "byteLength": 1068572,
      "uri": "scene.bin"
    }
  ],
  "images": [
    {
      "uri": "textures/frame_baseColor.jpeg"
    },
    {
      "uri": "textures/frame_metallicRoughness.png"
    },
    {
      "uri": "textures/frame_normal.png"
    },
    {
      "uri": "textures/grip_baseColor.jpeg"
    },
    {
      "uri": "textures/grip_metallicRoughness.png"
    },
    {
      "uri": "textures/grip_normal.png"
    },
    {
      "uri": "textures/rails_baseColor.jpeg"
    },
    {
      "uri": "textures/rails_metallicRoughness.png"
    },
    {
      "uri": "textures/rails_normal.png"
    },
    {
      "uri": "textures/stock_baseColor.jpeg"
    },
    {
      "uri": "textures/stock_metallicRoughness.png"
    },
    {
      "uri": "textures/stock_normal.png"
    }
  ],
  "materials": [
    {
      "doubleSided": true,
      "name": "frame",
      "normalTexture": {
        "index": 2
      },
      "occlusionTexture": {
        "index": 1
      },
      "pbrMetallicRoughness": {
        "baseColorTexture": {
          "index": 0
        },
        "metallicRoughnessTexture": {
          "index": 1
        }
      }
    },
    {
      "doubleSided": true,
      "name": "grip",
      "normalTexture": {
        "index": 5
      },
      "occlusionTexture": {
        "index": 4
      },
      "pbrMetallicRoughness": {
        "baseColorTexture": {
          "index": 3
        },
        "metallicRoughnessTexture": {
          "index": 4
        }
      }
    },
    {
      "doubleSided": true,
      "name": "rails",
      "normalTexture": {
        "index": 8
      },
      "occlusionTexture": {
        "index": 7
      },
      "pbrMetallicRoughness": {
        "baseColorTexture": {
          "index": 6
        },
        "metallicRoughnessTexture": {
          "index": 7
        }
      }
    },
    {
      "doubleSided": true,
      "name": "stock",
      "normalTexture": {
        "index": 11
      },
      "occlusionTexture": {
        "index": 10
      },
      "pbrMetallicRoughness": {
        "baseColorTexture": {
          "index": 9
        },
        "metallicRoughnessTexture": {
          "index": 10
        }
      }
    }
  ],
  "meshes": [
    {
      "name": "rk62m_0",
      "primitives": [
        {
          "attributes": {
            "NORMAL": 1,
            "POSITION": 0,
            "TANGENT": 2,
            "TEXCOORD_0": 3,
            "TEXCOORD_1": 4
          },
          "indices": 5,
          "material": 0,
          "mode": 4
        }
      ]
    },
    {
      "name": "rk62m_1",
      "primitives": [
        {
          "attributes": {
            "NORMAL": 7,
            "POSITION": 6,
            "TANGENT": 8,
            "TEXCOORD_0": 9,
            "TEXCOORD_1": 10
          },
          "indices": 11,
          "material": 1,
          "mode": 4
        }
      ]
    },
    {
      "name": "rk62m_2",
      "primitives": [
        {
          "attributes": {
            "NORMAL": 13,
            "POSITION": 12,
            "TANGENT": 14,
            "TEXCOORD_0": 15,
            "TEXCOORD_1": 16
          },
          "indices": 17,
          "material": 2,
          "mode": 4
        }
      ]
    },
    {
      "name": "rk62m_3",
      "primitives": [
        {
          "attributes": {
            "NORMAL": 19,
            "POSITION": 18,
            "TANGENT": 20,
            "TEXCOORD_0": 21,
            "TEXCOORD_1": 22
          },
          "indices": 23,
          "material": 3,
          "mode": 4
        }
      ]
    }
  ],
  "nodes": [
    {
      "children": [
        1
      ],
      "matrix": [
        1.0,
        0.0,
        0.0,
        0.0,
        0.0,
        2.220446049250313e-16,
        -1.0,
        0.0,
        0.0,
        1.0,
        2.220446049250313e-16,
        0.0,
        0.0,
        0.0,
        0.0,
        1.0
      ],
      "name": "Sketchfab_model"
    },
    {
      "children": [
        2,
        4
      ],
      "name": "Root"
    },
    {
      "children": [
        3
      ],
      "matrix": [
        -0.5532400000000001,
        0.7956200000000001,
        -0.24681000000000003,
        0.0,
        -0.7451300000000001,
        -0.34019000000000005,
        0.5736300000000001,
        0.0,
        0.37243000000000004,
        0.5012599999999999,
        0.78105,
        0.0,
        2.8262599999999996,
        3.1041100000000004,
        5.90416,
        1.0
      ],
      "name": "Lamp"
    },
    {
      "name": "Lamp"
    },
    {
      "children": [
        5,
        6,
        7,
        8
      ],
      "name": "rk62m"
    },
    {
      "mesh": 0,
      "name": "rk62m_0"
    },
    {
      "mesh": 1,
      "name": "rk62m_1"
    },
    {
      "mesh": 2,
      "name": "rk62m_2"
    },
    {
      "mesh": 3,
      "name": "rk62m_3"
    }
  ],
  "samplers": [
    {
      "magFilter": 9729,
      "minFilter": 9987,
      "wrapS": 10497,
      "wrapT": 10497
    }
  ],
  "scene": 0,
  "scenes": [
    {
      "name": "Sketchfab_Scene",
      "nodes": [
        0
      ]
    }
  ],
  "textures": [
    {
      "sampler": 0,
      "source": 0
    },
    {
      "sampler": 0,
      "source": 1
    },
    {
      "sampler": 0,
      "source": 2
    },
    {
      "sampler": 0,
      "source": 3
    },
    {
      "sampler": 0,
      "source": 4
    },
    {
      "sampler": 0,
      "source": 5
    },
    {
      "sampler": 0,
      "source": 6
    },
    {
      "sampler": 0,
      "source": 7
    },
    {
      "sampler": 0,
      "source": 8
    },
    {
      "sampler": 0,
      "source": 9
    },
    {
      "sampler": 0,
      "source": 10
    },
    {
      "sampler": 0,
      "source": 11
    }
  ]
}
